<svg width="500" height="500" viewBox="0 0 500 500" fill="none" xmlns="http://www.w3.org/2000/svg">
<rect width="500" height="500" fill="url(#paint0_linear_1012_8)"/>
<path d="M229.549 260.435C230.357 260.572 231.171 260.638 231.979 260.638H234.815C246.565 260.638 257.637 258.141 268.033 253.143C278.565 248.013 287.748 241.529 295.581 233.696C303.415 225.863 309.56 217.155 314.017 207.564C318.611 197.976 320.905 188.658 320.905 179.611C320.905 173.127 319.688 166.987 317.261 161.18C314.967 155.373 311.252 150.309 306.118 145.988C301.12 141.667 294.641 138.221 286.671 135.658C278.838 133.091 269.453 131.808 258.512 131.808C246.222 131.808 235.624 132.955 226.709 135.249C217.931 137.544 210.3 140.515 203.82 144.164C197.473 147.808 192.071 151.997 187.613 156.723C183.292 161.448 179.512 166.31 176.268 171.308C173.16 176.306 170.325 181.167 167.758 185.893C165.191 190.618 162.492 194.807 159.656 198.451C156.958 202.095 153.916 205.067 150.54 207.366C147.164 209.66 142.979 210.808 137.981 210.808C131.229 210.808 126.165 209.12 122.789 205.744C119.414 202.232 117.726 197.37 117.726 191.159C117.726 185.352 119.277 179.07 122.385 172.319C125.625 165.567 130.148 158.815 135.959 152.063C141.902 145.311 149.124 138.828 157.634 132.616C166.145 126.269 175.661 120.73 186.198 116.005C196.866 111.143 208.48 107.293 221.039 104.457C233.597 101.486 246.899 100 260.943 100C274.987 100 287.884 101.754 300.443 105.266C313.138 108.778 324.347 114.044 334.07 121.064C343.794 127.952 351.491 136.66 357.161 147.197C362.968 157.729 365.874 170.02 365.874 184.064C365.874 193.519 364.12 202.566 360.607 211.208C357.232 219.718 352.638 227.749 346.831 235.314C341.024 242.743 334.207 249.631 326.373 255.974C318.677 262.185 310.439 267.724 301.661 272.585C292.882 277.447 283.836 281.566 274.517 284.942C265.334 288.318 256.42 290.748 247.778 292.234C248.995 298.582 250.951 305.738 253.65 313.707C256.486 321.541 259.862 329.035 263.778 336.192C267.831 343.216 272.284 349.225 277.146 354.218C282.007 359.216 287.137 361.915 292.54 362.32C293.621 362.456 294.632 362.522 295.577 362.522H298.412C308.272 362.522 317.05 360.9 324.747 357.66C332.444 354.421 338.857 350.843 343.992 346.926C350.066 342.469 355.337 337.269 359.79 331.33C363.975 326.604 368.23 324.24 372.551 324.24C375.25 324.24 377.549 325.185 379.439 327.075C381.329 328.965 382.274 331.532 382.274 334.772C382.274 338.011 381.263 341.524 379.237 345.708C377.346 349.761 374.036 354.012 369.311 358.469C355.403 371.568 341.763 381.156 328.391 387.235C315.156 393.178 302.597 396.149 290.715 396.149C280.992 396.149 272.011 393.38 263.774 387.846C255.536 382.307 248.042 374.812 241.29 365.362C234.538 355.906 228.393 344.904 222.858 332.345C217.32 319.65 212.392 306.283 208.071 292.239C205.64 297.777 203.143 304.327 200.576 311.888C198.009 319.316 195.244 327.013 192.273 334.978C189.301 342.948 186.194 350.847 182.954 358.68C179.714 366.377 176.136 373.331 172.219 379.542C168.303 385.617 164.118 390.549 159.661 394.33C155.204 398.11 150.342 400 145.076 400C140.755 400 137.243 399.323 134.544 397.974C131.845 396.624 129.748 394.936 128.262 392.91C126.776 390.883 125.695 388.655 125.023 386.224C124.482 383.793 124.214 381.498 124.214 379.336C124.214 376.228 124.618 373.054 125.427 369.815C126.236 366.575 127.383 363.533 128.869 360.698L188.624 251.31C193.754 242.127 198.888 233.283 204.018 224.773C209.284 216.131 214.348 208.5 219.21 201.884C224.208 195.269 228.867 190.003 233.188 186.086C237.646 182.033 241.628 180.007 245.14 180.007C246.085 180.007 247.233 180.209 248.582 180.613C249.932 180.881 251.149 181.492 252.226 182.438C253.308 183.246 254.253 184.53 255.061 186.288C255.87 187.91 256.279 190.003 256.279 192.57C256.279 195.137 255.536 198.715 254.05 203.304C252.565 207.898 250.609 213.164 248.178 219.102C245.747 225.045 242.912 231.595 239.668 238.751C236.428 245.771 233.052 252.998 229.54 260.427L229.549 260.435Z" fill="white"/>
<defs>
<linearGradient id="paint0_linear_1012_8" x1="250" y1="500" x2="250" y2="-381.841" gradientUnits="userSpaceOnUse">
<stop stop-color="#681CFF"/>
<stop offset="1" stop-color="#FD3F83"/>
</linearGradient>
</defs>
</svg>
